<?xml version="1.0" encoding="UTF-8" standalone="no"?>
<!-- Created with Inkscape (http://www.inkscape.org/) -->
<svg xmlns:inkscape="http://www.inkscape.org/namespaces/inkscape" xmlns:rdf="http://www.w3.org/1999/02/22-rdf-syntax-ns#" xmlns="http://www.w3.org/2000/svg" xmlns:xlink="http://www.w3.org/1999/xlink" xmlns:ns1="http://sozi.baierouge.fr" xmlns:cc="http://creativecommons.org/ns#" xmlns:sodipodi="http://sodipodi.sourceforge.net/DTD/sodipodi-0.dtd" xmlns:dc="http://purl.org/dc/elements/1.1/" id="svg2" xml:space="preserve" viewBox="0 0 25.05 33.951" version="1.1" inkscape:version="0.91 r13725">
  <defs id="defs6">
    <linearGradient id="linearGradient26" y2="-12.437" gradientUnits="userSpaceOnUse" x2="22.85" gradientTransform="matrix(.000039950 -.8 -.8 .0008 .0010307 27.161)" y1="-12.437" x1="2.8252">
      <stop id="stop28" style="stop-color:#d9d9d9" offset="0"/>
      <stop id="stop30" style="stop-color:#595959" offset="1"/>
    </linearGradient>
    <linearGradient id="linearGradient56" y2="22.975" gradientUnits="userSpaceOnUse" x2="23.45" gradientTransform="matrix(.8 0 0 -.8 .0008 27.161)" y1="22.975" x1="1.3501">
      <stop id="stop58" style="stop-color:#8c6732" offset="0"/>
      <stop id="stop60" style="stop-color:#e7c17e" offset=".26270"/>
      <stop id="stop62" style="stop-color:#9c7a35" offset=".6196"/>
      <stop id="stop64" style="stop-color:#654c21" offset="1"/>
    </linearGradient>
    <linearGradient id="linearGradient78" y2="13.3" gradientUnits="userSpaceOnUse" x2="26.188" gradientTransform="matrix(.8 0 0 -.8 .0008 27.161)" y1="13.3" x1="-1.6875">
      <stop id="stop80" style="stop-color:#8a7751" offset="0"/>
      <stop id="stop82" style="stop-color:#c0a267" offset=".6196"/>
      <stop id="stop84" style="stop-color:#725c35" offset="1"/>
    </linearGradient>
  </defs>
  <g id="g10" transform="matrix(1.25 0 0 -1.25 0 33.951)">
    <g id="g12">
      <path id="path14" style="fill-rule:evenodd;fill:#545454" d="m16.902 22.262 0.098-0.5 0.039-4.441v-0.32c-0.316-0.266-0.918-0.414-1.797-0.442-0.773-0.023-1.32 0.016-1.64 0.121-0.133 0.055-0.227 0.106-0.282 0.16l-0.16 0.122 0.121 0.121v-0.16c0.481-0.161 1.028-0.188 1.641-0.083 1.226 0.188 1.801 1.321 1.719 3.399-0.079 1.281-0.215 2.441-0.399 3.48 0.297-0.48 0.52-0.964 0.66-1.457zm-10.14-4.941v-0.481c-0.321-0.238-0.961-0.332-1.922-0.281-0.481 0.028-0.852 0.082-1.117 0.16h-0.043c-0.266 0.082-0.465 0.176-0.598 0.282-0.027 0.027-0.055 0.054-0.082 0.082l0.641-0.282c0.105-0.027 0.214-0.054 0.32-0.082 0.371-0.05 0.746-0.05 1.121 0l0.359 0.121c0.586 0.188 0.918 0.68 1 1.481v1.801c0 0.664 0.188 1.238 0.559 1.718 0.562 0.668 1.469 1 2.723 1 1.757 0 2.851-0.546 3.277-1.64l0.039-0.078 0.082-0.321c-0.16 0.481-0.441 0.879-0.84 1.2-0.293 0.214-0.613 0.359-0.961 0.441-0.16 0.023-0.32 0.039-0.48 0.039h-1.641c-0.664 0-1.238-0.242-1.719-0.719-0.48-0.48-0.718-1.054-0.718-1.722v-2.719z" inkscape:connector-curvature="0"/>
      <g id="g16">
        <g id="g18">
          <g id="g24">
            <path id="path32" style="fill-rule:evenodd;fill:url(#linearGradient26)" d="m3 17.083v4c0 1.332 0.48 2.476 1.441 3.437 0.934 0.961 2.079 1.442 3.438 1.442h4.281c1.332 0 2.481-0.481 3.442-1.442 0.648-0.648 1.082-1.402 1.3-2.258-0.14 0.493-0.363 0.977-0.66 1.457-0.43 0.641-0.933 1.137-1.519 1.481 0.8-0.746 1.238-1.852 1.316-3.32 0.027-0.184-0.012-1.239-0.117-3.161-0.027-0.824-0.332-1.359-0.922-1.597-0.293-0.133-0.863-0.199-1.719-0.199v3.117c0 0.402-0.078 0.761-0.238 1.082l-0.043 0.078c-0.133 1.254-0.934 1.988-2.398 2.199-1.012 0.137-2.067 0.043-3.161-0.277-1.121-0.321-1.761-1.176-1.918-2.563-0.214-1.945-0.347-2.957-0.402-3.039-0.32-0.531-0.707-0.801-1.16-0.801-0.106 0.028-0.215 0.055-0.32 0.082l-0.641 0.282zm10.922 5.558c0-0.535 0.133-2 0.398-4.402 0.133 0.055 0.266 1.082 0.403 3.082 0.023 0.398 0 0.934-0.082 1.602-0.082 0.796-0.188 1.238-0.321 1.316-0.64 0.457-1.144 0.734-1.519 0.844-1.442 0.398-3.559 0.41-6.36 0.039-0.695-0.082-1.293-0.508-1.8-1.282-0.426-0.667-0.696-1.398-0.801-2.199-0.133-0.933-0.172-2.176-0.117-3.718 0.265 1.41 0.437 2.476 0.519 3.199 0.051 0.691 0.238 1.32 0.559 1.879 0.426 0.695 1 1.132 1.719 1.32 0.828 0.215 1.816 0.332 2.96 0.359 1.2 0.028 2.122-0.05 2.762-0.238 1.117-0.348 1.68-0.949 1.68-1.801z" inkscape:connector-curvature="0"/>
          </g>
        </g>
      </g>
      <path id="path34" style="fill-rule:evenodd;fill:#ffffff" d="m16.902 22.262c-0.218 0.856-0.652 1.61-1.3 2.258-0.961 0.961-2.11 1.442-3.442 1.442h-4.281c-1.359 0-2.504-0.481-3.438-1.442-0.961-0.961-1.441-2.105-1.441-3.437v-3.762h-0.078c-0.453 0-0.867-0.148-1.242-0.441-0.106-0.079-0.133-0.184-0.078-0.321-0.028-0.023-0.028-0.094 0-0.199-0.266-0.266-0.403-0.598-0.403-1v-11.879c0-0.453 0.176-0.855 0.524-1.199 0.316-0.32 0.718-0.481 1.199-0.481 1.332-0.375 3.64-0.574 6.918-0.601h0.402c3.492 0 5.785 0.199 6.879 0.601 0.453 0 0.852 0.161 1.199 0.481 0.348 0.344 0.52 0.746 0.52 1.199v11.879c0 0.375-0.106 0.695-0.317 0.961 0.024 0.078 0.024 0.144 0 0.199 0.051 0.133 0.012 0.242-0.121 0.32-0.347 0.321-0.773 0.481-1.281 0.481h-0.082l-0.039 4.441-0.098 0.5zm1.098 0.5 0.242-1.679v-2.762c0.266-0.106 0.57-0.281 0.918-0.52 0.375-0.293 0.563-0.679 0.563-1.16 0.211-0.426 0.316-0.855 0.316-1.281v-11.879c0-0.746-0.266-1.398-0.801-1.961-0.504-0.558-1.144-0.851-1.918-0.879-1.359-0.426-3.718-0.64-7.082-0.64h-0.879c-2.933 0.027-5.148 0.238-6.64 0.64-0.774 0.028-1.414 0.321-1.918 0.879-0.535 0.563-0.801 1.215-0.801 1.961v11.879c0 0.48 0.121 0.945 0.359 1.402 0.055 0.477 0.254 0.84 0.602 1.078 0.238 0.188 0.519 0.348 0.84 0.481v2.762c0 1.652 0.601 3.078 1.801 4.277 1.171 1.199 2.597 1.801 4.277 1.801h4.281c1.121 0 2.188-0.305 3.199-0.922 1.016-0.664 1.774-1.52 2.282-2.559l0.039-0.078 0.281-0.762 0.039-0.078zm-4.078-0.121c0 0.852-0.563 1.453-1.684 1.801-0.636 0.184-1.558 0.266-2.758 0.238-1.148-0.027-2.132-0.144-2.96-0.359-0.719-0.188-1.293-0.625-1.719-1.32-0.321-0.559-0.508-1.188-0.559-1.879-0.082-0.723-0.254-1.789-0.519-3.199-0.055 1.542-0.016 2.785 0.117 3.718 0.105 0.801 0.375 1.532 0.801 2.199 0.507 0.774 1.105 1.2 1.8 1.282 2.801 0.371 4.918 0.359 6.36-0.039 0.375-0.11 0.879-0.387 1.519-0.844 0.133-0.078 0.242-0.52 0.321-1.316 0.082-0.668 0.105-1.204 0.082-1.602-0.137-2-0.27-3.027-0.403-3.082-0.265 2.402-0.398 3.867-0.398 4.402zm-0.641-5.32h-6.519v2.719c0 0.668 0.238 1.242 0.718 1.722 0.481 0.477 1.055 0.719 1.719 0.719h1.641c0.16 0 0.32-0.016 0.48-0.039 0.348-0.082 0.668-0.227 0.961-0.441 0.399-0.321 0.68-0.719 0.84-1.2l-0.082 0.321c0.16-0.321 0.242-0.68 0.242-1.082v-2.719zm-1.719 3.68-0.042 0.082h-0.04l-0.121 0.078-0.238 0.078 0.199 1.203-0.281-1.16h-1.84c-0.344 0-0.637-0.121-0.879-0.359-0.238-0.243-0.359-0.536-0.359-0.883v-1.52h4.121v1.52l-0.082 0.402c-0.078 0.238-0.227 0.426-0.438 0.559z" inkscape:connector-curvature="0"/>
      <path id="path36" style="fill-rule:evenodd;fill:#614c1f" d="m3 17.321v-0.238c0.027-0.028 0.055-0.055 0.082-0.082 0.133-0.106 0.332-0.2 0.598-0.282h0.043l0.078-0.078c0.586-0.215 1.441-0.281 2.558-0.199 0.989 0.051 1.52 0.184 1.602 0.398 0.105 0.188-0.293 0.333-1.199 0.442v0.039h6.519v-0.238l-0.121-0.121 0.16-0.122c0.055-0.054 0.149-0.105 0.282-0.16l0.078-0.039c0.562-0.215 1.414-0.281 2.562-0.199 0.961 0.051 1.492 0.184 1.598 0.398 0.055 0.161-0.211 0.293-0.797 0.399v0.082h0.078c0.508 0 0.934-0.16 1.281-0.481 0.133-0.078 0.172-0.187 0.118-0.32l-0.04-0.039c-0.078-0.16-0.199-0.215-0.359-0.16-0.105 0.027-0.187 0.027-0.242 0-1.598-0.453-3.746-0.734-6.438-0.84h-3.039c-2.746 0.106-4.882 0.387-6.402 0.84h-0.078c-0.16 0-0.266 0.078-0.32 0.238-0.055 0.137-0.028 0.242 0.078 0.321 0.375 0.293 0.789 0.441 1.242 0.441h0.078zm3.082-1.121c-0.082 0-0.16-0.012-0.242-0.039 0.75-0.028 1.613-0.067 2.601-0.121h3c0.934 0.054 1.758 0.093 2.481 0.121-0.242 0.078-0.453 0.187-0.641 0.32l-0.359 0.52h-4.801c0.106-0.078 0.149-0.172 0.121-0.282-0.137-0.265-0.855-0.437-2.16-0.519zm-3 0.801h-0.16c-0.402 0-0.762-0.121-1.082-0.36h0.242c0.371-0.105 1.051-0.215 2.039-0.32-0.242 0.051-0.441 0.133-0.601 0.238l-0.438 0.442z" inkscape:connector-curvature="0"/>
      <path id="path38" style="fill-rule:evenodd;fill:#8a8a8a" d="m13.281 16.923c0.852 0 1.426 0.066 1.719 0.199 0.586 0.238 0.895 0.773 0.922 1.597 0.105 1.922 0.144 2.973 0.117 3.161-0.078 1.468-0.519 2.574-1.316 3.32 0.586-0.344 1.089-0.84 1.519-1.481 0.184-1.039 0.32-2.199 0.399-3.48 0.082-2.078-0.493-3.211-1.719-3.399-0.613-0.105-1.16-0.078-1.641 0.083zm-9.32-0.204c0.453 0 0.84 0.27 1.16 0.801 0.055 0.082 0.188 1.094 0.399 3.039 0.16 1.387 0.8 2.242 1.921 2.563 1.094 0.32 2.149 0.414 3.161 0.277 1.464-0.211 2.265-0.945 2.398-2.199-0.426 1.094-1.52 1.64-3.277 1.64-1.254 0-2.161-0.332-2.723-1-0.371-0.48-0.559-1.054-0.559-1.718v-1.801c-0.082-0.801-0.414-1.293-1-1.481l-0.359-0.121c-0.375-0.05-0.746-0.05-1.121 0z" inkscape:connector-curvature="0"/>
      <path id="path40" style="fill-rule:evenodd;fill:#f5dda0" d="m4.262 15.423-0.383 0.097c-0.238 0.055-0.438 0.121-0.598 0.199-0.64 0.215-1.066 0.348-1.281 0.403h-0.078c-0.16 0-0.266 0.066-0.32 0.199v0.039c-0.028 0.105-0.028 0.176 0 0.199 0.054-0.16 0.16-0.238 0.32-0.238h0.078c1.52-0.453 3.656-0.734 6.402-0.84h3.039c2.692 0.106 4.84 0.387 6.438 0.84 0.055 0.027 0.137 0.027 0.242 0 0.16-0.055 0.281 0 0.359 0.16l0.043 0.039c0.024-0.055 0.024-0.121 0-0.199l-0.043-0.039c-0.078-0.16-0.199-0.215-0.359-0.16h-0.242c-0.637-0.242-1.277-0.442-1.918-0.602-1.199-0.32-2.707-0.504-4.52-0.558h-3.039c-1.605 0.046-2.988 0.199-4.14 0.461z" inkscape:connector-curvature="0"/>
      <path id="path42" style="fill-rule:evenodd;fill:#614c21" d="m9.84 1.2c3.039 0.082 5.16 0.723 6.359 1.922 1.067 1.093 1.574 2.89 1.524 5.398-0.055 3.121-0.149 4.828-0.282 5.121-0.375 0.852-1.679 1.215-3.921 1.078-2.907-0.183-5.532-0.05-7.879 0.403-0.52 0.097-0.981 0.199-1.379 0.301 1.152-0.262 2.531-0.415 4.136-0.461h3.043c1.813 0.054 3.321 0.238 4.52 0.558 0.641 0.16 1.277 0.36 1.918 0.602h0.242c0.156-0.055 0.277 0 0.359 0.16l0.04 0.039c0.214-0.266 0.32-0.586 0.32-0.961v-11.879c0-0.453-0.176-0.855-0.52-1.199-0.347-0.32-0.746-0.481-1.199-0.481-1.094-0.402-3.387-0.601-6.883-0.601h-0.398z" inkscape:connector-curvature="0"/>
      <path id="path44" style="fill-rule:evenodd;fill:#473816" d="m17.039 17.239c0.59-0.106 0.856-0.238 0.801-0.399-0.106-0.214-0.641-0.347-1.598-0.398-1.148-0.082-2-0.016-2.562 0.199l-0.078 0.039c0.32-0.105 0.867-0.144 1.64-0.121 0.879 0.028 1.481 0.176 1.797 0.442v0.238zm-10.277 0.043c0.906-0.109 1.304-0.254 1.199-0.442-0.082-0.214-0.613-0.347-1.602-0.398-1.117-0.082-1.972-0.016-2.558 0.199l-0.078 0.078c0.265-0.078 0.636-0.132 1.117-0.16 0.961-0.051 1.601 0.043 1.922 0.281v0.442z" inkscape:connector-curvature="0"/>
      <g id="g46">
        <g id="g48">
          <g id="g54">
            <path id="path66" style="fill-rule:evenodd;fill:url(#linearGradient56)" d="m1.602 16.36v-0.039c0.054-0.133 0.16-0.199 0.32-0.199h0.078c0.215-0.055 0.641-0.188 1.281-0.403 0.16-0.078 0.36-0.144 0.598-0.199l0.383-0.097c0.398-0.102 0.859-0.204 1.379-0.301 2.347-0.453 4.972-0.586 7.882-0.403 2.239 0.137 3.543-0.226 3.918-1.078 0.133-0.293 0.227-2 0.282-5.121 0.05-2.508-0.453-4.305-1.52-5.398-1.203-1.199-3.32-1.84-6.363-1.922-3.278 0.027-5.586 0.226-6.918 0.601-0.481 0-0.879 0.161-1.199 0.481-0.348 0.348-0.52 0.746-0.52 1.199v11.879c-0.004 0.402 0.133 0.734 0.399 1z" inkscape:connector-curvature="0"/>
          </g>
        </g>
      </g>
      <g id="g68">
        <g id="g70">
          <g id="g76">
            <path id="path86" style="fill-rule:evenodd;fill:url(#linearGradient78)" d="m6.082 16.2c1.305 0.082 2.023 0.254 2.16 0.519 0.028 0.11-0.015 0.204-0.121 0.282h4.801l0.359-0.52c0.184-0.133 0.399-0.242 0.641-0.32-0.723-0.028-1.547-0.067-2.481-0.121h-3c-0.988 0.054-1.855 0.093-2.601 0.121 0.082 0.027 0.16 0.039 0.242 0.039zm-3 0.801 0.438-0.442c0.16-0.105 0.359-0.183 0.601-0.238-0.988 0.105-1.668 0.215-2.039 0.32h-0.242c0.32 0.239 0.68 0.36 1.082 0.36h0.16z" inkscape:connector-curvature="0"/>
          </g>
        </g>
      </g>
    </g>
  </g>
<metadata><rdf:RDF><cc:Work><dc:format>image/svg+xml</dc:format><dc:type rdf:resource="http://purl.org/dc/dcmitype/StillImage"/><cc:license rdf:resource="http://creativecommons.org/licenses/publicdomain/"/><dc:publisher><cc:Agent rdf:about="http://openclipart.org/"><dc:title>Openclipart</dc:title></cc:Agent></dc:publisher></cc:Work><cc:License rdf:about="http://creativecommons.org/licenses/publicdomain/"><cc:permits rdf:resource="http://creativecommons.org/ns#Reproduction"/><cc:permits rdf:resource="http://creativecommons.org/ns#Distribution"/><cc:permits rdf:resource="http://creativecommons.org/ns#DerivativeWorks"/></cc:License></rdf:RDF></metadata></svg>
